<?xml version="1.0" encoding="UTF-8" standalone="no"?><!-- Generator: Gravit.io --><svg xmlns="http://www.w3.org/2000/svg" xmlns:xlink="http://www.w3.org/1999/xlink" style="isolation:isolate" viewBox="0 0 800 600" width="800pt" height="600pt"><defs><clipPath id="_clipPath_8eP37ziqYL03qrZCsyo7iky3lbtmsZzM"><rect width="800" height="1200"/></clipPath></defs><g clip-path="url(#_clipPath_8eP37ziqYL03qrZCsyo7iky3lbtmsZzM)"><polygon points="432,446,382,490.5,382,401.5" fill="rgb(255,0,0)"/><polygon points="432,446,482,401.5,482,490.5" fill="rgb(255,0,0)"/><circle vector-effect="non-scaling-stroke" cx="244.5" cy="248.5" r="112.5" fill="rgb(208,241,253)" stroke-width="1" stroke="rgb(0,0,0)" stroke-linejoin="miter" stroke-linecap="square" stroke-miterlimit="3"/><path d=" M 244.5 361 L 244.5 446 M 244.5 446 L 382 446" fill-rule="evenodd" fill="none" vector-effect="non-scaling-stroke" stroke-width="1" stroke="rgb(0,0,0)" stroke-linejoin="miter" stroke-linecap="square" stroke-miterlimit="3"/><g><line x1="382" y1="401.5" x2="382" y2="490.5" vector-effect="non-scaling-stroke" stroke-width="1" stroke="rgb(0,0,0)" stroke-linejoin="miter" stroke-linecap="square" stroke-miterlimit="3"/><line x1="382" y1="490.5" x2="482" y2="401.5" vector-effect="non-scaling-stroke" stroke-width="1" stroke="rgb(0,0,0)" stroke-linejoin="miter" stroke-linecap="square" stroke-miterlimit="3"/><line x1="382" y1="401.5" x2="482" y2="490.5" vector-effect="non-scaling-stroke" stroke-width="1" stroke="rgb(0,0,0)" stroke-linejoin="miter" stroke-linecap="square" stroke-miterlimit="3"/><line x1="482" y1="401.5" x2="482" y2="490.5" vector-effect="non-scaling-stroke" stroke-width="1" stroke="rgb(0,0,0)" stroke-linejoin="miter" stroke-linecap="square" stroke-miterlimit="3"/></g><line x1="482" y1="446" x2="560" y2="446" vector-effect="non-scaling-stroke" stroke-width="1" stroke="rgb(0,0,0)" stroke-linejoin="miter" stroke-linecap="square" stroke-miterlimit="3"/><path d=" M 560 466.5 L 638 493.5 M 560 425.5 L 560 466.5 M 560 425.5 L 638 398.5 M 638 493.5 L 638 398.5" fill-rule="evenodd" fill="none" vector-effect="non-scaling-stroke" stroke-width="1" stroke="rgb(0,0,0)" stroke-linejoin="miter" stroke-linecap="square" stroke-miterlimit="3"/></g></svg>